<?xml version="1.0" encoding="utf-8"?>
<!-- Generator: Adobe Illustrator 22.1.0, SVG Export Plug-In . SVG Version: 6.00 Build 0)  -->
<svg version="1.1" xmlns="http://www.w3.org/2000/svg" xmlns:xlink="http://www.w3.org/1999/xlink" x="0px" y="0px"
	 viewBox="0 0 2880 1800" style="enable-background:new 0 0 2880 1800;" xml:space="preserve">
<style type="text/css">
	.st0{fill:none;stroke:#000000;stroke-width:8;stroke-miterlimit:10;}
	.st1{font-family:'MyriadPro-Regular';}
	.st2{font-size:7.0756px;}
	.st3{font-size:11.0637px;}
	.st4{font-size:4.6099px;}
	.st5{font-size:9.2197px;}
	.st6{font-size:5.5318px;}
	.st7{font-size:6.9148px;}
	.st8{font-size:4.6097px;}
	.st9{font-size:9.8769px;}
	.st10{font-size:9.8773px;}
	.st11{font-size:8.4572px;}
	.st12{font-size:9.8772px;}
	.st13{font-size:12.5771px;}
	.st14{font-size:12.5774px;}
	.st15{font-size:11.0934px;}
	.st16{font-size:11.626px;}
	.st17{font-size:10.655px;}
	.st18{font-size:12px;}
	.st19{font-size:12.6845px;}
	.st20{font-size:12.6847px;}
	.st21{font-size:9.8202px;}
	.st22{font-size:10.4241px;}
	.st23{font-size:26.0604px;}
	.st24{font-size:8.099px;}
	.st25{fill:none;}
	.st26{font-size:9.0636px;}
	.st27{font-size:9.0637px;}
	.st28{font-size:8.4325px;}
	.st29{font-size:8.4326px;}
	.st30{font-size:8.4328px;}
	.st31{font-size:8.413px;}
	.st32{font-size:30px;}
</style>
<g id="ES">
	<g id="F1">
		<path id="nothing" class="st0" d="M2400,949.4c0,0,196.9,126.8,446.3,24.2l-28-65.7L2806.5,807l-64.9,7.7h-13l-10.6-1.2v-4.7
			l-123.2-0.6v5.9l-15.3-0.6v14.7h-5.9v14.2h5.9v6.5l-81.4,10l-1.8-14.2l-17.7,2.9l2.4,13l-11.8,1.8l-7.7,22.4l-17.7-13l-1.2,4.1
			l-10-5.3l-13.6,25.9l7.7,3.2l-28.3,51.1"/>
		<path id="E101B" class="st0" d="M2455.7,913.1l-23,49.5c0,0,47.2,33,132.7,39.5l8.8-53.7C2574.2,948.5,2504.6,936.1,2455.7,913.1z
			"/>
		<polygon id="E103" class="st0" points="2598.4,950.9 2591.9,1009.7 2563,1005.1 2574.2,948.5 		"/>
		<polygon id="E104" class="st0" points="2649.1,953.8 2649.1,1013.7 2591.9,1009.8 2598.4,950.9 		"/>
		<polygon id="E105" class="st0" points="2699.8,950.9 2706.5,1010.2 2649.1,1013.4 2649.1,953.8 		"/>
		<polygon id="E106" class="st0" points="2750.5,943.2 2762.5,1000.4 2706.3,1010.4 2699.8,950.9 		"/>
		<polygon id="E107" class="st0" points="2799.4,929.6 2817.2,984.6 2762.3,1000.4 2750.5,943.2 		"/>
		<polygon id="ef1stair" class="st0" points="2824.6,922.6 2799.4,929.6 2817.1,984.5 2846,973.3 		"/>
		<path id="E122" class="st0" d="M2429.8,902.7c12.8,6.5,60,28.2,149.6,45c2.2,0.4,4.3-1.3,4.3-3.6l-0.1-85.9c0-2.2-1.9-3.9-4.1-3.6
			l-106.4,12.8c-1.3,0.2-2.4,1-2.9,2.2l-5.8,14.2c-0.8,2.1-3.3,2.9-5.2,1.8l-13.5-7.9c-1.7-1-3.8-0.5-4.9,1.1l-12.4,18.6
			C2427.2,899.2,2427.9,901.7,2429.8,902.7z"/>
		<polygon id="E111" class="st0" points="2583.6,817 2583.6,895.9 2728.7,896 2728.7,817 		"/>
		<polygon id="E121" class="st0" points="2583.7,928.5 2614.3,928.5 2614.3,896 2583.6,896 		"/>
		<polygon id="E111A" class="st0" points="2643.2,927.9 2614.3,928.5 2614.3,896 2643.2,895.9 		"/>
		<polygon id="E117" class="st0" points="2666.8,927.3 2643.2,928.5 2643.2,896 2666.8,895.9 		"/>
		<rect id="E115" x="2666.8" y="896" class="st0" width="24.8" height="31.3"/>
		<polygon id="E114" class="st0" points="2714.5,928.5 2691.5,927.3 2691.5,896 2714.5,896 		"/>
		<polygon id="E113" class="st0" points="2728.7,896 2728.7,929.6 2714.5,928.5 2714.5,896 		"/>
		<polygon id="E108" class="st0" points="2810.7,861.2 2816,910.2 2755.2,917.9 2748.7,869.5 		"/>
		<polygon id="E109" class="st0" points="2804.8,811.7 2810.7,861.2 2748.7,869.5 2742.8,820 		"/>
		<g id="Layer_6">
			<text transform="matrix(1 0 0 1 2477.4434 957.5967)" class="st1 st2">E101</text>
			<text transform="matrix(1 0 0 1 2477.4434 966.0889)" class="st1 st2">ES Offices</text>
			<text transform="matrix(1 0 0 1 2574.3193 990.085)" class="st1 st2">E103</text>
			<text transform="matrix(1 0 0 1 2617.2803 1000.1084)" class="st1 st2">E104</text>
			<text transform="matrix(1 0 0 1 2672.0928 1002.4395)" class="st1 st2">E105</text>
			<text transform="matrix(1 0 0 1 2725.5547 995.7002)" class="st1 st2">E106</text>
			<text transform="matrix(1 0 0 1 2784.0996 982.2227)" class="st1 st2">E107</text>
			<text transform="matrix(1 0 0 1 2776.7217 899.0449)" class="st1 st2">E108</text>
			<text transform="matrix(1 0 0 1 2772.2832 852.0107)" class="st1 st2">E109</text>
			<text transform="matrix(1 0 0 1 2510.4443 896.2344)" class="st1 st2">ES Commons</text>
			<text transform="matrix(1 0 0 1 2510.4443 904.7256)" class="st1 st2">E122</text>
			<text transform="matrix(1 0 0 1 2629.9199 848.8389)" class="st1 st2">Moter Skills Room</text>
			<text transform="matrix(1 0 0 1 2629.9199 857.3301)" class="st1 st2">(MSR)</text>
			<text transform="matrix(1 0 0 1 2647.9795 885.0586)" class="st1 st2">E111</text>
			<text transform="matrix(1 0 0 1 2588.6729 913.3311)" class="st1 st2">Kitchen</text>
			<text transform="matrix(1 0 0 1 2646.2627 911.4482)" class="st1 st2">Store</text>
		</g>
		<polygon id="esf1hallway" class="st0" points="2816,910.2 2755.2,917.9 2742.8,814.7 2728.7,814.7 2728.7,929.6 2583.6,928.5
			2583.6,947.8 2598.4,950.9 2649.1,953.2 2699.8,950.9 2750.5,943.2 2796.4,929.6 2820.3,922.6 		"/>
	</g>
	<g id="F2">
		<path id="Nothing" class="st0" d="M2392.7,1193.2c0,0,215.2,118.5,448.7,27.1l5.3-4.7l-22.4-51.9c0,0-154.5,83.1-403.9-18.9
			L2392.7,1193.2z"/>
		<polygon id="esf2stairs" class="st0" points="2797.3,1174.7 2824.3,1163.7 2846.7,1215.6 2816.8,1229.2 		"/>
		<polygon id="E207" class="st0" points="2748.2,1187.6 2760.9,1244.2 2816.6,1229.1 2797.2,1174.9 		"/>
		<polygon id="E206" class="st0" points="2696,1194.3 2702.8,1252.8 2761.2,1244.5 2748.2,1187.8 		"/>
		<polygon id="E205" class="st0" points="2644.1,1195.3 2644.1,1254.8 2702.8,1252.7 2696.3,1195.5 		"/>
		<polygon id="E204" class="st0" points="2592.1,1191.2 2586.4,1250.7 2643.8,1255.1 2643.8,1195.5 		"/>
		<polygon id="E203" class="st0" points="2541.5,1182.6 2529,1240.9 2586.1,1250.9 2592,1191.4 		"/>
		<polygon id="E202" class="st0" points="2490,1169.4 2472.3,1225.6 2528.9,1240.9 2541.3,1182.5 		"/>
		<polygon id="E201" class="st0" points="2446,1154.8 2422.7,1204.9 2472.3,1225.6 2490,1169.6 		"/>
		<polygon id="E209" class="st0" points="2804.2,1050.5 2810.1,1101.8 2746.4,1110.6 2740.5,1059.3 		"/>
		<polygon id="E208" class="st0" points="2816.6,1153.1 2752.9,1160.7 2746.4,1110.6 2810.1,1101.8 		"/>
		<polygon id="E221" class="st0" points="2577.8,1138.3 2577.8,1171.3 2595.5,1171.3 2595.5,1159.5 2626.7,1159.5 2626.7,1138.3
			"/>
		<rect x="2626.7" y="1138.3" class="st0" width="13" height="21.2"/>
		<polygon id="E216" class="st0" points="2662.7,1138.3 2662.7,1167.2 2639.7,1167.2 2639.7,1159.5 2639.7,1138.3 		"/>
		<polygon id="E215" class="st0" points="2687.5,1138.3 2687.5,1167.2 2678,1167.2 2662.7,1167.2 2662.7,1138.3 		"/>
		<rect id="E214" x="2687.5" y="1138.3" class="st0" width="24.2" height="28.9"/>
		<rect id="E213" x="2711.7" y="1138.3" class="st0" width="14.2" height="28.9"/>
		<rect id="E220" x="2597.3" y="1159.5" class="st0" width="29.5" height="11.8"/>
		<g id="Layer_7">
			<text transform="matrix(1 0 0 1 2445.8721 1205.3584)" class="st1 st2">E201</text>
			<text transform="matrix(1 0 0 1 2497.0195 1223.4697)" class="st1 st2">E202</text>
			<text transform="matrix(1 0 0 1 2551.46 1237.5771)" class="st1 st2">E203</text>
			<text transform="matrix(1 0 0 1 2610.5381 1245.3926)" class="st1 st2">E204</text>
			<text transform="matrix(1 0 0 1 2665.3555 1245.3662)" class="st1 st2">E205</text>
			<text transform="matrix(1 0 0 1 2721.8281 1240.9834)" class="st1 st2">E206</text>
			<text transform="matrix(1 0 0 1 2780.332 1229.1025)" class="st1 st2">E207</text>
			<text transform="matrix(1 0 0 1 2777.5957 1149.1328)" class="st1 st2">E208</text>
			<text transform="matrix(1 0 0 1 2771.1631 1098.6807)" class="st1 st2">E209</text>
			<text transform="matrix(1 0 0 1 2581.0898 1148.002)" class="st1 st2">Work Room</text>
			<text transform="matrix(1 0 0 1 2581.0898 1156.4922)" class="st1 st2">E221</text>
			<text transform="matrix(1 0 0 1 2644.0986 1156.9102)" class="st1 st2">E216</text>
			<text transform="matrix(1 0 0 1 2667.2705 1157.9326)" class="st1 st2">E215</text>
			<text transform="matrix(1 0 0 1 2692.9453 1156.6709)" class="st1 st2">E214</text>
		</g>
		<polygon id="esf2hall" class="st0" points="2480.5,1107.1 2462.8,1108.8 2451.6,1136 2428.6,1124.2 2419.8,1143 2445.7,1154.8
			2490,1169.6 2541.3,1182.5 2592,1191.4 2643.8,1195.5 2696.3,1194.3 2748.2,1187.8 2797.2,1174.9 2824.3,1163.7 2816.6,1153.1
			2752.9,1160.7 2739.4,1056.9 2725.8,1056.9 2725.8,1169 2639.7,1167.2 2639.7,1159.5 2626.7,1159.5 2626.7,1171.3 2577.8,1171.3
			2485.2,1146.6 		"/>
	</g>
	<g id="F3">
		<path id="nothing_1_" class="st0" d="M2377.2,1462.8c0,0,215.3,118.3,448.7,26.8l5.3-4.7l-22.4-51.9c0,0-154.4,83.3-403.9-18.5
			L2377.2,1462.8z"/>
		<polygon id="esf3stairs" class="st0" points="2781.9,1444 2808.8,1432.9 2831.2,1484.8 2801.4,1498.5 		"/>
		<polygon id="E307" class="st0" points="2732.7,1456.9 2745.5,1513.5 2801.2,1498.4 2781.7,1444.2 		"/>
		<polygon id="E306" class="st0" points="2680.6,1463.7 2687.4,1522.1 2745.8,1513.8 2732.7,1457.2 		"/>
		<polygon id="E305" class="st0" points="2628.6,1464.8 2628.7,1524.2 2687.4,1522.1 2680.9,1464.9 		"/>
		<polygon id="E304" class="st0" points="2576.7,1460.7 2570.9,1520.2 2628.4,1524.5 2628.4,1464.9 		"/>
		<polygon id="E303" class="st0" points="2526,1452.1 2513.6,1510.4 2570.6,1520.4 2576.5,1460.8 		"/>
		<polygon id="E302" class="st0" points="2474.5,1439 2456.8,1495.1 2513.4,1510.4 2525.8,1452 		"/>
		<polygon id="E301" class="st0" points="2430.5,1424.3 2407.3,1474.5 2456.8,1495.1 2474.5,1439.1 		"/>
		<polygon id="E309" class="st0" points="2788.7,1319.8 2794.6,1371 2730.9,1379.9 2725,1328.7 		"/>
		<polygon id="E308" class="st0" points="2801.1,1422.3 2737.4,1430.1 2730.9,1379.9 2794.6,1371 		"/>
		<polygon id="E321" class="st0" points="2562.3,1407.8 2562.3,1440.8 2580,1440.8 2580,1429 2611.3,1429 2611.2,1407.8 		"/>
		<rect x="2611.3" y="1407.7" class="st0" width="13" height="21.2"/>
		<polygon id="E316" class="st0" points="2647.2,1407.7 2647.2,1436.6 2624.2,1436.6 2624.2,1429 2624.2,1407.7 		"/>
		<polygon id="E315" class="st0" points="2672,1407.7 2672,1436.6 2662.6,1436.6 2647.2,1436.6 2647.2,1407.7 		"/>
		<rect id="E314" x="2672" y="1407.7" class="st0" width="24.2" height="28.9"/>
		<rect id="E313" x="2696.2" y="1407.7" class="st0" width="14.2" height="28.9"/>
		<rect id="E320" x="2581.8" y="1429" class="st0" width="29.5" height="11.8"/>
		<polygon id="E311" class="st0" points="2701.9,1407.7 2702,1326.9 2562.2,1327 2562.3,1364.7 2568.8,1363.6 2568.8,1407.8 		"/>
		<polygon id="E322" class="st0" points="2449.7,1378.4 2438.5,1404.9 2449.7,1403.8 2449.7,1411.4 2466.2,1409.6 2466.2,1418.5
			2482.1,1414.3 2482.1,1420.2 2496.9,1418.5 2496.9,1426.1 2513.4,1424.3 2513.4,1430.8 2527.5,1429 2527.5,1434.9 2545.2,1432
			2545.2,1437.3 2562.3,1437.3 2562.3,1407.8 2568.8,1407.8 2568.8,1363.6 2562.3,1363.6 		"/>
		<polygon id="E310" class="st0" points="2728.6,1360 2702,1365.2 2702,1326.9 2725,1328.7 		"/>
		<polygon id="esf3hall" class="st0" points="2404.9,1414.4 2411.4,1400.2 2438.5,1404.9 2449.7,1404.9 2449.7,1410.8
			2465.6,1410.8 2465.6,1418.5 2481.5,1414.3 2481.5,1420.2 2498.6,1418.5 2498.6,1426.1 2513.4,1424.3 2513.4,1429.1 2527.5,1429
			2527.5,1434.9 2545.2,1432 2545.2,1437.3 2562.3,1437.3 2562.3,1440.8 2611.3,1440.8 2611.3,1429 2624.2,1429 2624.2,1436.6
			2710.3,1436.6 2710.3,1407.7 2702,1407.7 2702,1365.2 2728.5,1359.9 2738.6,1430.1 2801.1,1421.8 2808.8,1432.9 2781.7,1444.2
			2732.7,1457.2 2680.9,1464.9 2628.4,1464.9 2576.5,1460.8 2525.8,1452 2474.5,1439.1 2428.5,1424.4 		"/>
		<g id="Layer_8">
			<text transform="matrix(1 -7.895085e-04 7.895085e-04 1 2428.7905 1474.4718)" class="st1 st2">E301</text>
			<text transform="matrix(1 -7.895085e-04 7.895085e-04 1 2481.7893 1495.0833)" class="st1 st2">E302</text>
			<text transform="matrix(1 -7.895085e-04 7.895085e-04 1 2535.3921 1510.3867)" class="st1 st2">E303</text>
			<text transform="matrix(1 -7.895085e-04 7.895085e-04 1 2594.4768 1513.5022)" class="st1 st2">E304</text>
			<text transform="matrix(1 -7.895085e-04 7.895085e-04 1 2652.0222 1515.4342)" class="st1 st2">E305</text>
			<text transform="matrix(1 -7.895085e-04 7.895085e-04 1 2707.3606 1508.6885)" class="st1 st2">E306</text>
			<text transform="matrix(1 -7.895085e-04 7.895085e-04 1 2765.874 1494.6627)" class="st1 st2">E307</text>
			<text transform="matrix(1 -7.895085e-04 7.895085e-04 1 2760.0674 1420.469)" class="st1 st2">E308</text>
			<text transform="matrix(1 -7.895085e-04 7.895085e-04 1 2756.084 1367.3022)" class="st1 st2">E309</text>
			<text transform="matrix(1 -7.895085e-04 7.895085e-04 1 2628.2651 1382.8191)" class="st1 st2">E311</text>
			<text transform="matrix(1 -7.895085e-04 7.895085e-04 1 2589.8857 1420.5477)" class="st1 st2">E321</text>
			<text transform="matrix(1 -7.895085e-04 7.895085e-04 1 2651.9753 1428.9401)" class="st1 st2">E315</text>
			<text transform="matrix(1 -7.895085e-04 7.895085e-04 1 2677.9727 1429.15)" class="st1 st2">E314</text>
			<text transform="matrix(1 -7.895085e-04 7.895085e-04 1 2507.3003 1405.1422)" class="st1 st2">E322</text>
			<text transform="matrix(1 -7.895085e-04 7.895085e-04 1 2503.3381 1392.5632)" class="st1 st2">Library</text>
			<text transform="matrix(1 -7.895085e-04 7.895085e-04 1 2599.3391 1363.797)" class="st1 st2">Rooftop Playground 3F</text>
			<text transform="matrix(1 -7.895085e-04 7.895085e-04 1 2707.0962 1344.2256)" class="st1 st2">E310</text>
		</g>
	</g>
	<g id="F4">
		<path id="nothing_2_" class="st0" d="M2368.1,1706.8c0,0,215.3,118.3,448.7,26.8l5.3-4.7l-22.4-51.9c0,0-154.4,83.3-403.9-18.5
			L2368.1,1706.8z"/>
		<polygon id="esf4stairs" class="st0" points="2772.7,1688 2799.7,1677 2822.1,1728.8 2792.2,1742.5 		"/>
		<polygon id="E407" class="st0" points="2723.6,1700.9 2736.3,1757.5 2792,1742.4 2772.5,1688.2 		"/>
		<polygon id="E406" class="st0" points="2671.4,1707.7 2678.3,1766.1 2736.6,1757.8 2723.6,1701.2 		"/>
		<polygon id="E405" class="st0" points="2619.5,1708.8 2619.5,1768.2 2678.3,1766.1 2671.7,1708.9 		"/>
		<polygon id="E404" class="st0" points="2567.5,1704.7 2561.8,1764.2 2619.3,1768.5 2619.3,1708.9 		"/>
		<polygon id="E403" class="st0" points="2516.9,1696.1 2504.5,1754.4 2561.5,1764.4 2567.4,1704.8 		"/>
		<polygon id="E402" class="st0" points="2465.3,1683 2447.7,1739.1 2504.3,1754.4 2516.6,1696 		"/>
		<polygon id="E401" class="st0" points="2421.3,1668.3 2398.1,1718.5 2447.7,1739.1 2465.3,1683.1 		"/>
		<polygon id="E409" class="st0" points="2779.5,1563.8 2785.5,1615.1 2721.8,1623.9 2715.8,1572.7 		"/>
		<polygon id="E408" class="st0" points="2792,1666.3 2728.3,1674.1 2721.8,1623.9 2785.5,1615.1 		"/>
		<polygon id="E421" class="st0" points="2553.2,1651.8 2553.2,1684.8 2570.9,1684.8 2570.9,1673 2602.1,1673 2602.1,1651.8 		"/>
		<rect x="2602.1" y="1651.7" class="st0" width="13" height="21.2"/>
		<polygon id="E416" class="st0" points="2638.1,1651.7 2638.1,1680.6 2615.1,1680.6 2615.1,1673 2615.1,1651.7 		"/>
		<polygon id="E415" class="st0" points="2662.8,1651.7 2662.9,1680.6 2653.4,1680.6 2638.1,1680.6 2638.1,1651.7 		"/>
		<rect id="E414" x="2662.9" y="1651.7" class="st0" width="24.2" height="28.9"/>
		<rect id="E413" x="2687" y="1651.7" class="st0" width="14.2" height="28.9"/>
		<rect x="2572.6" y="1673" class="st0" width="29.5" height="11.8"/>
		<polygon id="E422" class="st0" points="2426.4,1646 2438.8,1618.9 2559.6,1605.2 2559.7,1651.8 2553.2,1651.8 2553.2,1677.6
			2536.1,1680.7 2534.3,1674.2 2519.6,1676 2519,1670.7 2504.2,1673.1 2502.5,1666 2487.7,1668.4 2487.1,1662.5 2471.2,1662.5
			2470.6,1657.2 2456.5,1658.4 2454.1,1650.1 2439.4,1651.9 2438.8,1644.8 		"/>
		<polyline id="path" class="st0" points="2696.4,1650.5 2695.8,1571.5 2740,1567.3 		"/>
		<polygon id="E410" class="st0" points="2695.8,1603.1 2719.2,1601.5 2715.1,1569.6 2695.8,1571.5 		"/>
		<path id="esf4hall" class="st0" d="M2393.4,1658.4l11.2-22.4c0,0,53.1,31.2,148.6,48.8l48.9,0l0-11.8l13,0l0,7.7l86.1-0.1l0-28.9
			l-3-3.5l-0.3-45l21.5-1.6l8.9,72.5l63.7-7.7l4.1,12.4C2796.1,1678.7,2652.3,1760.2,2393.4,1658.4z"/>
		<g id="Layer_9">
			<text transform="matrix(1 -7.895085e-04 7.895085e-04 1 2422.7412 1718.8282)" class="st1 st2">E401</text>
			<text transform="matrix(1 -7.895085e-04 7.895085e-04 1 2474.0225 1738.5369)" class="st1 st2">E402</text>
			<text transform="matrix(1 -7.895085e-04 7.895085e-04 1 2530.2346 1752.2649)" class="st1 st2">E403</text>
			<text transform="matrix(1 -7.895085e-04 7.895085e-04 1 2587.6255 1757.4891)" class="st1 st2">E404</text>
			<text transform="matrix(1 -7.895085e-04 7.895085e-04 1 2643.3347 1757.7313)" class="st1 st2">E405</text>
			<text transform="matrix(1 -7.895085e-04 7.895085e-04 1 2701.2473 1752.2812)" class="st1 st2">E406</text>
			<text transform="matrix(1 -7.895085e-04 7.895085e-04 1 2753.4048 1736.4081)" class="st1 st2">E407</text>
			<text transform="matrix(1 -7.895085e-04 7.895085e-04 1 2753.2649 1660.7596)" class="st1 st2">E408</text>
			<text transform="matrix(1 -7.895085e-04 7.895085e-04 1 2747.5479 1607.2603)" class="st1 st2">E409</text>
			<text transform="matrix(1 -7.895085e-04 7.895085e-04 1 2476.4788 1636.1002)" class="st1 st2">Rooftop Playground 4F</text>
			<text transform="matrix(1 -7.895085e-04 7.895085e-04 1 2476.4854 1644.5905)" class="st1 st2">E422</text>
			<text transform="matrix(1 -7.895085e-04 7.895085e-04 1 2698.8904 1587.0272)" class="st1 st2">E410</text>
			<text transform="matrix(1 -7.895085e-04 7.895085e-04 1 2577.8181 1666.3054)" class="st1 st2">E421</text>
			<text transform="matrix(1 -7.895085e-04 7.895085e-04 1 2619.5156 1670.4425)" class="st1 st2">E416</text>
			<text transform="matrix(1 -7.895085e-04 7.895085e-04 1 2643.5178 1673.1588)" class="st1 st2">E415</text>
			<text transform="matrix(1 -7.895085e-04 7.895085e-04 1 2667.3535 1670.2465)" class="st1 st2">E414</text>
		</g>
	</g>
</g>
<g id="INT">
	<g id="F2_3_">
		<g>
			<polyline id="intermediate_f2_hallways" class="st0" points="2005.6,1216.5 2005.6,1263.1 2022.7,1263.1 2022.7,1368.2
				2291.4,1369.1 2291.4,1371.4 2291.4,1398.2 2022.2,1397.7 2022.2,1443.8 1980.7,1443.8 1980.7,1434.6 1956.3,1434.6
				1956.3,1396.8 1973.8,1396.8 1973.4,1242.8 1914.4,1242.8 			"/>
			<polyline class="st0" points="2005.6,1216.5 1960.5,1216.5 1960.5,1197.6 1930.5,1197.6 1930.5,1216.5 1914.4,1216.5
				1914.4,1242.8 			"/>
		</g>
		<g>
			<polygon id="M211" class="st0" points="2081.7,1263.1 2081.7,1368.4 2022.7,1368.2 2022.7,1263.1 			"/>
		</g>
		<g>
			<polygon id="M210" class="st0" points="2140.2,1263.1 2081.7,1263.1 2081.7,1368.2 2147.1,1368.2 2147.2,1320.7
				2133.3,1320.7 2133.3,1283.4 2140.2,1283.4 			"/>
		</g>
		<g>
			<polygon id="M209" class="st0" points="2198.8,1263.1 2140.2,1263.1 2140.2,1283.4 2133.3,1283.4 2133.3,1320.7
				2147.2,1320.7 2147.2,1368.2 2198.8,1368.8 			"/>
		</g>
		<g>
			<polygon id="M208" class="st0" points="2258.3,1263.1 2258,1369 2198.8,1368.6 2198.8,1263.1 			"/>
		</g>
		<g>
			<polygon id="M207" class="st0" points="2267.1,1398.1 2267,1502.8 2198.3,1502.8 2198.3,1398 			"/>
		</g>
		<g>
			<polygon id="M206" class="st0" points="2147,1397.9 2147.2,1446.6 2133.8,1446.6 2133.8,1483.9 2140.7,1483.9 2140.2,1502.8
				2198.3,1502.8 2198.3,1398.2 			"/>
		</g>
		<g>
			<polygon id="M205" class="st0" points="2081.7,1397.8 2082.2,1502.8 2140.2,1502.8 2140.2,1483.9 2133.8,1483.9
				2133.8,1446.6 2147.2,1446.6 2147.2,1397.7 			"/>
		</g>
		<g>
			<polygon id="M204" class="st0" points="2022.7,1443.8 2022.7,1502.8 2081.7,1502.8 2081.7,1397.7 2022.7,1397.7 			"/>
		</g>
		<g>
			<polygon id="M202" class="st0" points="2022.7,1467.3 1981.2,1467.3 1981.2,1443.8 2022.7,1443.8 			"/>
		</g>
		<g>
			<polygon id="M201" class="st0" points="2022.7,1487.8 1981.2,1487.6 1981.2,1524 1906.1,1524 1906.1,1442.4 1934.2,1434.6
				1956.3,1434.6 1981.2,1434.6 1981.2,1467.3 2022.7,1467.3 			"/>
		</g>
		<g>
			<polygon id="M225" class="st0" points="1956.3,1396.8 1914.8,1396.8 1914.8,1440 1934.2,1434.6 1956.3,1434.6 			"/>
		</g>
		<g>
			<polygon id="M224" class="st0" points="1914.8,1396.8 1906.1,1396.8 1906.1,1323.5 1973.6,1323.5 1973.8,1396.8 			"/>
		</g>
		<g>
			<polygon id="M223" class="st0" points="1906.1,1323.5 1905.6,1242.8 1973.4,1242.8 1973.8,1323.5 			"/>
		</g>
		<g>
			<rect id="M216" x="1980.3" y="1143.2" class="st0" width="45.6" height="73.3"/>
		</g>
		<g>
			<polygon id="M219" class="st0" points="1980.3,1197.6 1945.9,1197.6 1945.7,1143.2 1980.3,1143.2 			"/>
		</g>
		<g>
			<rect id="M220" x="1914.4" y="1143.2" class="st0" width="31.3" height="54.4"/>
		</g>
		<g>
			<rect id="M217" x="1960" y="1197.6" class="st0" width="20.3" height="18.9"/>
		</g>
		<g id="lables_1_">
			<text transform="matrix(1 0 0 1 2218.1826 1313.7402)" class="st1 st3">M208</text>
			<text transform="matrix(1 0 0 1 2155.4502 1312.4492)" class="st1 st3">M209</text>
			<text transform="matrix(1 0 0 1 2095.8574 1312.6143)" class="st1 st3">M210</text>
			<text transform="matrix(1 0 0 1 2038.3047 1312.3906)" class="st1 st3">M211</text>
			<text transform="matrix(1 0 0 1 2109.0273 1382.8994)" class="st1 st3">Hallways</text>
			<text transform="matrix(1 0 0 1 2218.0176 1450.6025)" class="st1 st3">M207</text>
			<text transform="matrix(1 0 0 1 2158.4482 1450.2393)" class="st1 st3">M206</text>
			<text transform="matrix(1 0 0 1 2095.6758 1450.084)" class="st1 st3">M205</text>
			<text transform="matrix(1 0 0 1 2044.041 1450.5781)" class="st1 st3">M204</text>
			<text transform="matrix(1 0 0 1 1930.1377 1481.4023)" class="st1 st3">M201</text>
			<text transform="matrix(1 0 0 1 1989.1133 1455.5156)" class="st1 st3">M202</text>
			<text transform="matrix(1 0 0 1 1921.9551 1419.9004)" class="st1 st3">M225</text>
			<text transform="matrix(1 0 0 1 1927.1162 1363.3672)" class="st1 st3">M224</text>
			<text transform="matrix(1 0 0 1 1927.2393 1285.5488)" class="st1 st3">M223</text>
			<text transform="matrix(1 0 0 1 1989.0469 1184.4453)" class="st1 st3">M216</text>
			<text transform="matrix(1 0 0 1 1964.584 1209.333)" class="st1 st4">M217</text>
			<text transform="matrix(1 0 0 1 1951.2842 1173.0439)" class="st1 st5">M219</text>
			<text transform="matrix(1 0 0 1 1919.5684 1173.168)" class="st1 st5">M220</text>
		</g>
	</g>
	<g id="F1_3_">
		<g>
			<polyline id="M110" class="st0" points="1588.8,1287.8 1643.7,1287.8 1643.7,1306.3 1637.7,1306.3 1637.7,1341.8
				1650.2,1341.8 1650.2,1389.5 1588.8,1389.6 1588.8,1287.8 			"/>
		</g>
		<g>
			<polyline id="M111" class="st0" points="1588.8,1389.6 1588.8,1341.8 1531.7,1341.8 1531.7,1389.7 1588.8,1389.6 			"/>
		</g>
		<g>
			<rect id="M115" x="1531.7" y="1287.8" class="st0" width="57.2" height="53.9"/>
		</g>
		<g>
			<polygon id="Intermediate_hallway" class="st0" points="1495.7,1172.6 1534,1172.6 1535.4,1285.5 1531.7,1285.5
				1531.7,1389.7 1755.3,1389.3 1755.3,1320.1 1786.6,1320.1 1786.6,1413.2 1532.1,1413.2 1532.1,1457 1493,1457 1493,1448.3
				1449.2,1448.3 1449.2,1411.9 1493.4,1411.9 1493.4,1266.2 1429.8,1266.2 1429.8,1241.7 1445,1241.7 1445,1225.6 1473.6,1225.6
				1473.6,1243.1 1495.3,1243.1 			"/>
		</g>
		<g>
			<polygon id="M109" class="st0" points="1698.6,1287.8 1643.7,1287.8 1643.7,1306.3 1637.7,1306.3 1637.7,1341.8
				1650.2,1341.8 1650.2,1389.5 1698.6,1389.4 			"/>
		</g>
		<g>
			<rect id="M108" x="1698.6" y="1287.8" class="st0" width="56.7" height="101.4"/>
		</g>
		<g>
			<rect id="M102" x="1493" y="1457" class="st0" width="38.7" height="42.9"/>
		</g>
		<g>
			<rect id="M104" x="1531.7" y="1413.2" class="st0" width="57.2" height="112.9"/>
		</g>
		<g>
			<rect id="M105" x="1588.8" y="1413.2" class="st0" width="61.3" height="112.9"/>
		</g>
		<g>
			<rect id="M106" x="1650.2" y="1413.2" class="st0" width="48.4" height="112.9"/>
		</g>
		<g>
			<polygon id="M107" class="st0" points="1763.8,1413.2 1764,1526.2 1698.6,1526.2 1698.6,1413.2 			"/>
		</g>
		<g>
			<polygon id="M101A" class="st0" points="1493,1499.9 1469.9,1500.4 1469.9,1483.3 1493,1483.3 			"/>
		</g>
		<g>
			<polygon id="M101" class="st0" points="1493,1457 1493,1483.3 1469.9,1483.3 1469.9,1500.4 1449.6,1500.4 1449.2,1448.3
				1493,1448.3 			"/>
		</g>
		<g>
			<polygon id="M101B" class="st0" points="1493,1499.9 1493,1534.9 1449.2,1534.9 1449.6,1500.4 			"/>
		</g>
		<g>
			<polygon id="M101C" class="st0" points="1449.5,1489.9 1422,1489.8 1422,1507.7 1419.2,1507.7 1419.7,1525.7 1422,1525.7
				1422,1534.9 1449.2,1534.9 			"/>
		</g>
		<g>
			<polygon id="M101D" class="st0" points="1422,1457 1422,1489.8 1449.6,1489.8 1449.2,1449.3 			"/>
		</g>
		<g>
			<polygon id="M124" class="st0" points="1493.4,1358.7 1461.6,1358.8 1461.6,1377.3 1449.6,1377.3 1449.6,1411.9
				1493.4,1411.9 			"/>
		</g>
		<g>
			<polygon id="M124A" class="st0" points="1449.2,1413.5 1422,1413.7 1422,1375.9 1449.6,1375.9 			"/>
		</g>
		<g>
			<polyline id="M123A" class="st0" points="1449.6,1375.9 1449.6,1343.2 1422.4,1343.2 1422,1375.9 			"/>
		</g>
		<g>
			<rect id="M123B" x="1422.4" y="1307.2" class="st0" width="27.2" height="36"/>
		</g>
		<g>
			<polygon id="M123C" class="st0" points="1493.4,1326.5 1461.6,1326.6 1461.6,1345.9 1493.4,1345.9 			"/>
		</g>
		<g>
			<polygon id="M121B" class="st0" points="1449.6,1310.9 1461.6,1310.9 1461.6,1333.5 1449.6,1333.5 			"/>
		</g>
		<g>
			<polygon id="M121A" class="st0" points="1493.4,1302.7 1461.6,1303.1 1461.6,1326.6 1493.4,1326.6 			"/>
		</g>
		<g>
			<polygon id="M122" class="st0" points="1461.6,1303.1 1461.6,1266.2 1493.4,1266.2 1493.4,1302.6 			"/>
		</g>
		<g>
			<polygon id="M121" class="st0" points="1429.8,1266.2 1422.4,1266.2 1422.4,1307.2 1449.6,1307.2 1449.6,1310.9
				1461.6,1310.9 1461.6,1266.2 			"/>
		</g>
		<g>
			<polygon id="M123" class="st0" points="1493.4,1345.9 1493.4,1358.8 1461.6,1358.8 1461.6,1377.3 1449.6,1377.3
				1449.6,1333.5 1461.6,1333.5 1461.6,1345.9 			"/>
		</g>
		<g>
			<polygon id="M119" class="st0" points="1459.7,1225.6 1459.8,1174 1495.7,1174 1495.4,1225.6 			"/>
		</g>
		<g>
			<polygon id="M117" class="st0" points="1495.4,1225.4 1495.3,1243.1 1473.6,1243.1 1473.6,1225.6 			"/>
		</g>
		<g>
			<polygon id="M120" class="st0" points="1445,1225.6 1429.8,1225.6 1429.8,1174 1459.8,1174 1459.8,1225.6 			"/>
		</g>
		<g>
			<polygon id="M116" class="st0" points="1565.3,967 1565.3,1174 1396.6,1172.6 1396.6,1008.5 1429.3,1008 1428.9,967 			"/>
		</g>
		<g id="labels_1_">
			<text transform="matrix(1 0 0 1 1719.5186 1469.749)" class="st1 st3">M107</text>
			<text transform="matrix(1 0 0 1 1660.0059 1469.3389)" class="st1 st3">M106</text>
			<text transform="matrix(1 0 0 1 1608.0107 1469.9619)" class="st1 st3">M105</text>
			<text transform="matrix(1 0 0 1 1547.9531 1471.2412)" class="st1 st3">M104</text>
			<text transform="matrix(1 0 0 1 1717.2402 1338.7451)" class="st1 st3">M108</text>
			<text transform="matrix(1 0 0 1 1661.5381 1338.9521)" class="st1 st3">M109</text>
			<text transform="matrix(1 0 0 1 1603.3623 1338.8604)" class="st1 st3">M110</text>
			<text transform="matrix(1 0 0 1 1547.7891 1318.9824)" class="st1 st3">M115</text>
			<text transform="matrix(1 0 0 1 1547.9727 1368.1348)" class="st1 st3">M111</text>
			<text transform="matrix(1 0 0 1 1615.7148 1404.1328)" class="st1 st3">Hallways</text>
			<text transform="matrix(1 0 0 1 1498.1367 1481.334)" class="st1 st3">M102</text>
			<text transform="matrix(1 0 0 1 1462.4688 1465.5439)" class="st1 st3">M101</text>
			<text transform="matrix(1 0 0 1 1473.2109 1494.4082)" class="st1 st6">M101A</text>
			<text transform="matrix(1 0 0 1 1455.3906 1520.2432)" class="st1 st3">M101B</text>
			<text transform="matrix(1 0 0 1 1424.2725 1517.4033)" class="st1 st7">M101C</text>
			<text transform="matrix(1 0 0 1 1425.8643 1471.4473)" class="st1 st7">M101D</text>
			<text transform="matrix(1 0 0 1 1455.583 1394.8213)" class="st1 st3">M124</text>
			<text transform="matrix(1 0 0 1 1425.9385 1396.0967)" class="st1 st7">M124A</text>
			<text transform="matrix(1 0 0 1 1425.9238 1359.5664)" class="st1 st7">M123A</text>
			<text transform="matrix(1 0 0 1 1425.8184 1326.3252)" class="st1 st7">M123B</text>
			<text transform="matrix(1 0 0 1 1467.7178 1337.6377)" class="st1 st7">M123C</text>
			<text transform="matrix(1 0 0 1 1467.5684 1316.6172)" class="st1 st7">M121A</text>
			<text transform="matrix(1 0 0 1 1470.2305 1286.5068)" class="st1 st7">M122</text>
			<text transform="matrix(1 0 0 1 1429.9834 1290.6123)" class="st1 st3">M121</text>
			<text transform="matrix(1 0 0 1 1467.6582 1204.2861)" class="st1 st5">M119</text>
			<text transform="matrix(1 0 0 1 1433.3467 1206.1904)" class="st1 st5">M120</text>
			<text transform="matrix(1 0 0 1 1476.0889 1237.0703)" class="st1 st7">M117</text>
			<text transform="matrix(1 0 0 1 1462.167 1092.3086)" class="st1 st3">M116</text>
			<text transform="matrix(1 0 0 1 1482.1768 1430.2861)" class="st1 st3">Lobby</text>
			<text transform="matrix(-1.173036e-02 -0.9999 0.9999 -1.173036e-02 1457.5884 1328.8453)" class="st1 st8">M121B</text>
		</g>
	</g>
</g>
<g id="HS">
	<g id="lower">
		<rect id="H036" x="94.8" y="139.3" class="st0" width="49.9" height="66.9"/>
		<rect id="H034" x="95" y="206.5" class="st0" width="49.9" height="41.7"/>
		<rect id="H032" x="95" y="248.2" class="st0" width="49.9" height="56"/>
		<polygon id="H030" class="st0" points="95,304.2 95,334.4 128,334.4 128,305.8 		"/>
		<polygon id="L1Hall1" class="st0" points="377.1,427.7 389.1,427.7 389.1,442.5 334.3,442.5 334.3,376.1 126.9,376.1 126.9,158.8
			141.7,158.8 141.7,198.8 141.1,364 348,362.4 348,428.8 		"/>
		<rect id="H026" x="141.7" y="305.3" class="st0" width="30.2" height="54.9"/>
		<rect id="H020" x="206.4" y="312.4" class="st0" width="36.8" height="47.7"/>
		<rect id="H018" x="243.2" y="312.4" class="st0" width="27.4" height="47.7"/>
		<rect id="H015B" x="270.6" y="305.3" class="st0" width="30.7" height="57.6"/>
		<rect id="H015A" x="301.4" y="305.3" class="st0" width="32.4" height="57.6"/>
		<rect id="H108" x="348.5" y="326.1" class="st0" width="56" height="34"/>
		<rect id="H107" x="348.5" y="306.9" class="st0" width="56" height="19.2"/>
		<rect id="H006" x="348.5" y="277.9" class="st0" width="56" height="29.1"/>
		<rect id="H005" x="348.5" y="249.3" class="st0" width="56" height="28.5"/>
		<rect id="H004" x="348.5" y="195" class="st0" width="56" height="54.3"/>
		<rect id="H003" x="348.5" y="140.1" class="st0" width="56" height="54.9"/>
		<rect id="H041" x="237.2" y="92.4" class="st0" width="96.6" height="102.6"/>
		<polygon id="H040" class="st0" points="143.9,92.4 143.9,193.4 237.2,195 237.2,92.4 		"/>
		<polygon id="H015" class="st0" points="141.7,214.8 141.7,305.3 333.7,305.3 348.5,306.9 348.5,195 143.9,195 		"/>
		<polygon id="L1stair" class="st0" points="359,136.8 359,53.4 328.8,53.4 328.8,90.2 333.7,92.4 333.7,195 348.5,195 348.5,140.1
					"/>
		<polygon class="st0" points="407.8,360.2 407.8,387.1 390.2,387.1 390.2,444.7 332.1,444.7 332.1,377.7 95,379.9 95,139.6
			141.7,139.6 141.7,40.3 356.2,26 404.5,26 404.5,140.1 		"/>
		<polyline class="st0" points="146.9,214.8 206.4,214.8 206.4,304.2 		"/>
		<g id="Layer_15">
			<text transform="matrix(1 0 0 1 367.7012 227.3789)" class="st1 st9">H004</text>
			<text transform="matrix(1 0 0 1 367.5977 266.708)" class="st1 st9">H005</text>
			<text transform="matrix(1 0 0 1 367.3242 292.5645)" class="st1 st9">H006</text>
			<text transform="matrix(1 0 0 1 367.5166 319.501)" class="st1 st9">H107</text>
			<text transform="matrix(1 0 0 1 359.2432 352.7949)" class="st1 st9">H108</text>
			<text transform="matrix(-8.949641e-03 1 -1 -8.949641e-03 313.4736 319.3021)" class="st1 st10">H015A</text>
			<text transform="matrix(1 0 0 1 245.3477 343.2939)" class="st1 st9">H018</text>
			<text transform="matrix(1 0 0 1 272.1016 339.8809)" class="st1 st9">H015B</text>
			<text transform="matrix(1 0 0 1 101.3799 323.3105)" class="st1 st9">H030</text>
			<text transform="matrix(1 0 0 1 101.4561 278.0498)" class="st1 st9">H032</text>
			<text transform="matrix(1 0 0 1 97.7676 235.1055)" class="st1 st9">H034</text>
			<text transform="matrix(1 0 0 1 101.6401 189.9502)" class="st1 st9">H036</text>
			<text transform="matrix(1 0 0 1 175.7124 151.4287)" class="st1 st9">H040</text>
			<text transform="matrix(1 0 0 1 266.4492 153.792)" class="st1 st9">H041</text>
			<text transform="matrix(1 0 0 1 252.2715 246.8906)" class="st1 st9">H015</text>
			<text transform="matrix(1 0 0 1 369.9443 167.4971)" class="st1 st9">H003</text>
			<text transform="matrix(1 0 0 1 143.7002 330.7832)" class="st1 st9">stairs</text>
			<text transform="matrix(1 0 0 1 355.7676 399.0635)" class="st1 st9">stairs</text>
			<text transform="matrix(1 0 0 1 213.627 343.0381)" class="st1 st9">H020</text>
		</g>
	</g>
	<g id="F1_2_">
		<rect id="H127" x="555.4" y="368.9" class="st0" width="55.4" height="66.4"/>
		<rect id="H117" x="610.8" y="368.9" class="st0" width="121.8" height="66.4"/>
		<rect id="F1stairs" x="752.9" y="376.6" class="st0" width="45" height="39.5"/>
		<polygon id="f1hall" class="st0" points="800.1,435.3 732.6,435.3 732.6,368.9 555.4,368.9 555.4,435.3 536.8,435.3 536.8,349.2
			735.9,349.2 737,94.6 766.1,94.6 765.6,122 754,121.5 752.9,416.1 797.9,416.1 801.8,416.1 		"/>
		<rect id="Boysbathroom" x="752.9" y="347.5" class="st0" width="47.2" height="29.1"/>
		<rect id="Girlsbathroom" x="752.9" y="320.7" class="st0" width="47.2" height="26.9"/>
		<rect id="H105" x="752.9" y="234.5" class="st0" width="47.2" height="86.1"/>
		<rect id="H104" x="752.9" y="150" class="st0" width="47.2" height="84.5"/>
		<rect id="H103" x="752.9" y="120.9" class="st0" width="47.2" height="29.1"/>
		<polygon id="H102" class="st0" points="768.3,89.1 802.3,89.1 802.3,119.3 767.2,119.3 		"/>
		<rect id="H115" x="536.2" y="76.5" class="st0" width="198.1" height="214"/>
		<rect id="H115A" x="703" y="291.6" class="st0" width="34" height="58.2"/>
		<rect id="H116" x="666.3" y="291.6" class="st0" width="36.8" height="58.2"/>
		<polygon id="H118" class="st0" points="599.3,292.7 599.3,349.7 635,349.7 633.9,292.7 		"/>
		<polygon id="H116A" class="st0" points="663.5,292.7 633.9,292.7 635,349.7 666.3,349.7 666.3,291.6 		"/>
		<rect id="teacherbathroom" x="563.1" y="292.7" class="st0" width="36.2" height="57.1"/>
		<polygon id="f1stair2" class="st0" points="536.2,349.7 536.2,290.5 563.1,292.7 563.1,349.7 		"/>
		<polygon id="welcomecenter" class="st0" points="529.6,356.9 481.9,356.9 481.3,124.2 529.6,124.2 		"/>
		<polyline class="st0" points="800.1,376.6 800.1,435.3 537.3,434.2 536.2,367.3 473.7,366.2 473.1,107.8 535.1,107.8 		"/>
		<polygon class="st0" points="732.1,72.1 732.1,37 768.9,37 768.9,89.1 750.2,89.1 750.2,76.5 		"/>
		<g id="Layer_16">
			<text transform="matrix(1 0 0 1 570.293 411.0469)" class="st1 st9">H127</text>
			<text transform="matrix(1 0 0 1 659.2402 396.4766)" class="st1 st9">H117</text>
			<text transform="matrix(1 0 0 1 607.375 333.9199)" class="st1 st9">H118</text>
			<text transform="matrix(1 0 0 1 636.3633 327.0645)" class="st1 st9">H116A</text>
			<text transform="matrix(1 0 0 1 706.0889 327.2246)" class="st1 st9">H115A</text>
			<text transform="matrix(1 0 0 1 623.0264 209.3359)" class="st1 st9">H115</text>
			<text transform="matrix(1 0 0 1 623.0264 221.1885)" class="st1 st9">HS Gym</text>
			<text transform="matrix(1 0 0 1 764.7695 141.9189)" class="st1 st9">H103</text>
			<text transform="matrix(1.1679 0 0 1 764.7207 188.915)" class="st1 st11">H104</text>
			<text transform="matrix(1.1679 0 0 1 764.7207 199.0664)" class="st1 st11">Mens</text>
			<text transform="matrix(1.1679 0 0 1 764.7207 209.2178)" class="st1 st11">Locker</text>
			<text transform="matrix(1 0 0 1 760.2207 274.9688)" class="st1 st9">H105</text>
			<text transform="matrix(1 0 0 1 760.2207 286.8213)" class="st1 st9">Womens</text>
			<text transform="matrix(1 0 0 1 760.2207 298.6738)" class="st1 st9">Locker</text>
			<text transform="matrix(7.907749e-02 0.9969 -0.9969 7.907749e-02 501.011 229.0546)" class="st1 st12">Welcome Center</text>
			<text transform="matrix(1 0 0 1 671.6445 326.916)" class="st1 st9">H116</text>
		</g>
	</g>
	<g id="F2_2_">
		<polygon id="H227" class="st0" points="1013,406.8 1104.1,408.5 1104.1,301.5 1011.4,301.5 		"/>
		<rect x="1088.8" y="301.5" class="st0" width="15.4" height="28"/>
		<rect id="H227C" x="1048.2" y="301.5" class="st0" width="40.6" height="21.9"/>
		<polygon id="H227A" class="st0" points="1011.7,323.4 1031.1,323.4 1031.1,301.5 1011.4,301.5 		"/>
		<rect id="H227B" x="1031.1" y="301.5" class="st0" width="17" height="21.9"/>
		<rect id="H229" x="923.1" y="286.1" class="st0" width="24.7" height="20.9"/>
		<rect id="H230" x="923.1" y="264.7" class="st0" width="24.7" height="19.2"/>
		<rect id="H231" x="923.1" y="248.8" class="st0" width="24.7" height="14.3"/>
		<rect id="H232" x="923.1" y="230.1" class="st0" width="24.7" height="18.7"/>
		<rect id="H233" x="923.1" y="207.1" class="st0" width="24.7" height="23"/>
		<rect id="H234" x="923.1" y="193.4" class="st0" width="24.7" height="13.7"/>
		<rect id="H235" x="923.1" y="180.2" class="st0" width="24.7" height="13.2"/>
		<rect id="H236" x="923.1" y="166.5" class="st0" width="24.7" height="13.7"/>
		<rect id="H237" x="923.1" y="152.8" class="st0" width="24.7" height="13.7"/>
		<polygon id="H240" class="st0" points="923.1,150 923.1,120.9 932.4,120.9 932.4,139 937.9,145.6 958.7,144.5 958.7,137.4
			966.4,137.4 965.9,248.8 947.7,248.8 947.7,152.8 923.1,152.8 		"/>
		<rect id="H216" x="1058" y="251" class="st0" width="45" height="36.8"/>
		<polygon id="H218" class="st0" points="1012.5,264.7 1011.4,287.7 1058,287.7 1057.8,264.7 		"/>
		<polygon id="H218C" class="st0" points="1058,251 1041.6,251 1041.6,263.6 1058,264.7 		"/>
		<polygon id="H218A" class="st0" points="1011.4,251 1012.5,264.7 1031.1,264.7 1031.1,251 		"/>
		<polygon class="st0" points="966.4,88 965.9,244 1104.1,245.5 1104.1,88 		"/>
		<polyline class="st0" points="1011.4,287.7 965.9,288.8 966.4,251 		"/>
		<line class="st0" x1="987.8" y1="255.9" x2="987.8" y2="288.3"/>
		<polygon id="pclounge" class="st0" points="947.7,408.5 947.7,306.9 947.7,248.8 965.9,248.8 965.9,291.6 1011.4,289.9
			1013,406.8 		"/>
		<polygon id="pccafe" class="st0" points="855.6,441.9 873.1,380.5 945.5,382.1 946.6,441.9 		"/>
		<rect x="1116.7" y="308" class="st0" width="31.8" height="41.7"/>
		<polygon id="f1hall_1_" class="st0" points="1104.1,350.8 1116.7,349.7 1117.3,123.1 1133.8,123.1 1133.8,103.4 1113.5,103.4
			1104.1,103.4 		"/>
		<polygon class="st0" points="1157.9,306.4 1155.7,286.6 1118,286.6 1116.7,308 		"/>
		<polygon id="H206" class="st0" points="1159.5,246.6 1118,246.6 1117.8,286.6 1155.7,286.6 		"/>
		<polygon id="H205" class="st0" points="1156.3,206 1116.7,206 1117.8,246.6 1159.5,246.6 1161.7,231.8 		"/>
		<polygon id="H204" class="st0" points="1159.5,164.3 1117.2,164.3 1116.7,206 1156.3,206 		"/>
		<polygon id="H203" class="st0" points="1155.7,124.2 1116.7,123.1 1116.7,164.3 1159.5,164.3 1161.7,151.1 		"/>
		<polygon id="H201" class="st0" points="1159.5,79.2 1133.8,79.2 1132.7,84.7 1124.4,84.7 1124.4,100.6 1157.4,103.4 		"/>
		<line class="st0" x1="1161.7" y1="72.1" x2="1156.3" y2="124.2"/>
		<polygon class="st0" points="1101.4,84.7 1101.4,59.5 1126.6,59.5 1126.6,83.6 1124.4,84.7 		"/>
		<polygon class="st0" points="1125.5,441.9 946.6,441.9 947.7,408.5 1125.5,408.5 		"/>
		<line class="st0" x1="923.1" y1="120.9" x2="966.4" y2="120.9"/>
		<g id="text">
			<text transform="matrix(1 0 0 1 897.7969 158.7881)" class="st1 st9">H237</text>
			<text transform="matrix(1 0 0 1 896.7578 175.0918)" class="st1 st9">H236</text>
			<text transform="matrix(1 0 0 1 895.9541 205.5498)" class="st1 st9">H234</text>
			<text transform="matrix(1 0 0 1 895.7783 224.8809)" class="st1 st9">H233</text>
			<text transform="matrix(1 0 0 1 895.9775 243.2002)" class="st1 st9">H232</text>
			<text transform="matrix(1 0 0 1 895.7129 260.0029)" class="st1 st9">H231</text>
			<text transform="matrix(1 0 0 1 895.458 279.0264)" class="st1 st9">H230</text>
			<text transform="matrix(1 0 0 1 893.1953 301.5625)" class="st1 st9">H229</text>
			<text transform="matrix(1 0 0 1 958.9512 373.3916)" class="st1 st9">PC Lounge</text>
			<text transform="matrix(1 0 0 1 888.8848 418.1377)" class="st1 st9">Phoenix</text>
			<text transform="matrix(1 0 0 1 888.8848 429.9902)" class="st1 st9">Cafe</text>
			<text transform="matrix(1 0 0 1 1023.7793 359.9053)" class="st1 st9">H227</text>
			<text transform="matrix(1 0 0 1 1023.7793 371.7578)" class="st1 st9">Library</text>
			<text transform="matrix(1 0 0 1 1126.8594 273.9053)" class="st1 st9">H206</text>
			<text transform="matrix(1 0 0 1 1127.0566 229.8691)" class="st1 st9">H205</text>
			<text transform="matrix(1 0 0 1 1129.6035 186.9922)" class="st1 st9">H204</text>
			<text transform="matrix(1 0 0 1 1129.6445 149.2539)" class="st1 st9">H203</text>
			<text transform="matrix(1 0 0 1 1132.4639 94.1294)" class="st1 st9">H201</text>
			<text transform="matrix(1 0 0 1 998.9248 166.8506)" class="st1 st9">PC Gym (open)</text>
			<text transform="matrix(1 0 0 1 858.8125 103.4634)" class="st1 st9">H240 (Counselors Hall)</text>
			<text transform="matrix(1 0 0 1 896.4092 191.1562)" class="st1 st9">H235</text>
			<text transform="matrix(1 0 0 1 1023.6484 274.1719)" class="st1 st9">H218</text>
			<text transform="matrix(1 0 0 1 1023.6484 286.0244)" class="st1 st9">(SMS)</text>
			<text transform="matrix(1 0 0 1 1068.2793 276.3936)" class="st1 st9">H216</text>
		</g>
	</g>
	<g id="F3_1_">
		<rect id="H318" x="1377.5" y="247" class="st0" width="109.7" height="48.2"/>
		<polygon id="marketing" class="st0" points="1308.3,309.2 1308.3,287.6 1323.7,287.6 1323.7,93.3 1269.9,93.3 1269.9,316.9
			1298.5,316.9 1298.5,309.9 		"/>
		<polygon id="f3roof" class="st0" points="1489.3,428 1487.2,310.6 1298.5,310.6 1297.1,428 		"/>
		<polygon id="H306" class="st0" points="1506.7,247 1506.7,295.3 1551.4,295.3 1557,247 		"/>
		<polygon id="H305" class="st0" points="1506.7,201.6 1506.7,247 1557,247 1557,232.4 1550.8,201.6 		"/>
		<polygon id="H304" class="st0" points="1506.7,155.5 1506.7,201.6 1550.8,201.6 1557,155.5 		"/>
		<polygon id="H303" class="st0" points="1506.7,110.1 1506.7,155.5 1557,155.5 1558.4,142.2 1549.4,110.1 		"/>
		<polygon id="f3hall1" class="st0" points="1489.3,364.7 1508.8,364.4 1506.7,110.1 1525.5,110.1 1525.6,87 1489.3,87
			1487.2,295.3 		"/>
		<polygon id="f3hall2" class="st0" points="1308.3,287.6 1323.7,287.6 1323.7,295.3 1487.2,295.3 1487.2,310.6 1308.3,309.2 		"/>
		<polygon id="greenroof" class="st0" points="1327.2,54.2 1327.2,239.4 1485.8,239.4 1485.8,69.5 1333.4,70.3 1333.4,54.2 		"/>
		<polygon id="H301" class="st0" points="1513,64.7 1513,87 1525.6,87 1551.4,91.2 1557,59.8 1521.4,59.8 		"/>
		<polygon id="f3bathroom" class="st0" points="1551.4,295.3 1557,319.7 1541,316.9 1541,364.4 1508.8,364.4 1506.7,295.3 		"/>
		<polygon id="f3stairs" class="st0" points="1485.8,69.5 1487.2,39.5 1515.8,39.5 1513,87 1485.8,88.5 		"/>
		<g id="text_1_">
			<text transform="matrix(1 0 0 1 1515.9004 140.6064)" class="st1 st13">H303</text>
			<text transform="matrix(1 0 0 1 1515.8857 178.7549)" class="st1 st13">H304</text>
			<text transform="matrix(1 0 0 1 1516.123 227.5508)" class="st1 st13">H305</text>
			<text transform="matrix(1 0 0 1 1516.04 273.834)" class="st1 st13">H306</text>
			<text transform="matrix(1 0 0 1 1371.3242 381.2344)" class="st1 st13">Green Roof</text>
			<text transform="matrix(1 0 0 1 1389.3477 271.1465)" class="st1 st13">Wittenberg Hall</text>
			<text transform="matrix(1 0 0 1 1385.3389 168.6875)" class="st1 st13">Green Roof</text>
			<text transform="matrix(1 0 0 1 1522.3135 75.835)" class="st1 st13">H301</text>
			<text transform="matrix(1 0 0 1 1510.9023 313.2197)" class="st1 st13">stairs</text>
			<text transform="matrix(1 0 0 1 1332.0078 266.3984)" class="st1 st13">stairs</text>
			<text transform="matrix(-2.528950e-02 0.9997 -0.9997 -2.528950e-02 1497.3903 48.8043)" class="st1 st14">stairs</text>
		</g>
	</g>
	<g id="F4_1_">
		<polygon id="H405" class="st0" points="426.8,793.9 376.3,793.9 376.3,679.2 426.8,679.2 433.6,716.2 		"/>
		<polygon id="H404" class="st0" points="376.3,623.2 376.3,679.2 426.8,679.2 433.6,623.2 		"/>
		<polygon id="H403" class="st0" points="376.3,564.6 376.3,623.2 433.6,623.2 433.6,602.8 424.4,564.6 		"/>
		<polygon id="H401" class="st0" points="433.6,503.6 394.7,503.6 394.7,509.8 381.9,509.8 381.9,536.9 397.2,536.9 412,536.9
			410.8,541.2 428.7,541.2 		"/>
		<polygon id="f4hallA" class="st0" points="353.5,535.6 381.9,535.6 397.2,535.6 397.2,562.2 376.3,564.6 376.2,642.6 353.5,677.4
					"/>
		<polygon id="f4hallB" class="st0" points="353.5,830.5 98.3,830.3 98.3,811.2 168,811.2 168,790.8 195.1,790.8 194.5,814.2
			318.4,813.6 		"/>
		<polygon id="f4hallC" class="st0" points="373.8,862.9 415.1,862.9 415.1,882 351.6,882 353.5,830.3 318.4,813.6 353.5,813.6
			353.5,677.4 376.3,642.9 		"/>
		<rect id="H429" x="98.3" y="738.4" class="st0" width="70.2" height="72.1"/>
		<polygon id="H418" class="st0" points="230.2,716.2 230.2,784.1 277,780.9 277,813.8 294.6,813.8 292.5,718.1 		"/>
		<polygon id="H416" class="st0" points="355,718.3 292.5,718.1 292.5,765 355,765 		"/>
		<polygon id="H417" class="st0" points="353.5,813.6 354.7,764.9 292.5,764.9 294.3,813.6 		"/>
		<rect id="H429A" x="98.3" y="718.1" class="st0" width="70.2" height="20.4"/>
		<polygon id="H429B" class="st0" points="105.1,716.2 105.1,560.9 171.7,560.9 171.7,718.1 		"/>
		<line class="st0" x1="230.2" y1="716.2" x2="171.7" y2="718.1"/>
		<polyline class="st0" points="426.8,793.9 431.7,825.9 415.1,825.9 415.1,859.8 		"/>
		<polyline class="st0" points="353.5,535.6 353.5,476.5 385.5,476.5 385.5,509.8 		"/>
		<line class="st0" x1="429.1" y1="537.8" x2="424.4" y2="564.6"/>
		<line class="st0" x1="194.5" y1="731.7" x2="194.5" y2="790.8"/>
		<g id="text_2_">
			<text transform="matrix(1 0 0 1 121.9238 647.7461)" class="st1 st15">H429B</text>
			<text transform="matrix(1 0 0 1 121.9238 661.0801)" class="st1 st15">Garden</text>
			<text transform="matrix(1 0 0 1 119.4155 779.624)" class="st1 st15">H429</text>
			<text transform="matrix(1 0 0 1 237.7734 804.333)" class="st1 st15">H418A</text>
			<text transform="matrix(1 0 0 1 249.6094 746.8457)" class="st1 st15">H418</text>
			<text transform="matrix(1 0 0 1 306.8779 741.4668)" class="st1 st15">H416</text>
			<text transform="matrix(1 0 0 1 311.3018 791.0898)" class="st1 st15">H417</text>
			<text transform="matrix(1.407001e-02 -0.9999 0.9999 1.407001e-02 399.4035 782.9257)" class="st1 st15">Augsburg Hall</text>
			<text transform="matrix(1.407001e-02 -0.9999 0.9999 1.407001e-02 412.7362 783.1123)" class="st1 st15">405 &amp; 406</text>
			<text transform="matrix(1 0 0 1 388.4512 658.3701)" class="st1 st15">H404</text>
			<text transform="matrix(1 0 0 1 391.0029 600.2295)" class="st1 st15">H403</text>
			<text transform="matrix(1 0 0 1 395.1914 525.6621)" class="st1 st15">H401</text>
		</g>
		<line class="st0" x1="230.2" y1="782.8" x2="230.2" y2="813.6"/>
	</g>
	<g id="F5">
		<polygon id="H506" class="st0" points="791.9,783.2 791.9,732.3 842.2,732.3 837.7,783.2 		"/>
		<polygon id="H505" class="st0" points="837.7,679.2 844.8,712.8 842.2,732.3 791.9,732.3 791.9,679.2 		"/>
		<polygon id="H504" class="st0" points="842.2,627 837.7,679.2 791.9,679.2 791.9,627 		"/>
		<polygon id="H503" class="st0" points="837.1,573.3 844.8,608.2 842.2,627 791.9,627 791.9,573.3 		"/>
		<polygon id="H501" class="st0" points="808.6,516.5 808.6,523.6 797,523.6 797,547.5 824.1,547.5 840.3,547.5 842.2,516.5 		"/>
		<polygon id="f5HallC" class="st0" points="789.9,846.6 828,846.6 828,863.3 769.9,863.3 771.8,816.8 718.2,816.8 744.1,802.7
			773.1,802.7 773.1,732.3 789.9,705.8 		"/>
		<polygon id="f5HallA" class="st0" points="771.2,547.5 797,547.5 797,550.7 811.2,550.7 811.2,571.4 791.9,573.3 789.9,709.4
			773.1,732.3 		"/>
		<polygon id="f5HallB" class="st0" points="540.6,816.8 540.6,800.7 603.9,800.7 603.9,781.3 627.1,781.3 627.1,802.7 744.1,802.7
			718.2,816.8 		"/>
		<polygon id="H529" class="st0" points="540.6,732.3 540.6,800.7 603.9,800.7 601.9,732.3 		"/>
		<polygon id="H518" class="st0" points="659.4,715.4 659.4,771.7 670.2,771.7 703.3,771.7 703.3,800.7 716.3,800.7 716.3,715.4
			"/>
		<polygon id="H518A" class="st0" points="669.8,781.3 659.4,781.3 659.4,802.7 703.3,800.7 703.3,771.7 670.4,771.7 		"/>
		<polyline class="st0" points="837.7,783.2 842.2,814.2 828,814.2 828,846.6 		"/>
		<polyline class="st0" points="771.2,715.4 540.6,715.4 540.6,736.5 		"/>
		<rect id="H516" x="716.3" y="715.4" class="st0" width="56.8" height="42.6"/>
		<rect id="H517" x="716.3" y="758" class="st0" width="56.8" height="44.6"/>
		<g id="Layer_20">
			<text transform="matrix(1 0 0 1 802.3125 600.3936)" class="st1 st16">H503</text>
			<text transform="matrix(1 0 0 1 805.0293 649.2109)" class="st1 st16">H504</text>
			<text transform="matrix(1 0 0 1 807.6738 709.3066)" class="st1 st16">H505</text>
			<text transform="matrix(1 0 0 1 804.915 760.6895)" class="st1 st16">H506</text>
			<text transform="matrix(1 0 0 1 729.1816 740.0723)" class="st1 st16">H516</text>
			<text transform="matrix(1 0 0 1 731.5215 785.793)" class="st1 st16">H517</text>
			<text transform="matrix(1 0 0 1 673.9375 743.1406)" class="st1 st16">H518</text>
			<text transform="matrix(1 0 0 1 664.0938 795.6172)" class="st1 st16">H518A</text>
			<text transform="matrix(1 0 0 1 557.3838 771.4512)" class="st1 st16">H529</text>
		</g>
		<polyline class="st0" points="771.2,547.5 771.2,491.3 802.2,491.3 802.2,522.3 797,523.6 797,547.5 771.2,547.5 		"/>
		<line class="st0" x1="840.3" y1="547.5" x2="837.1" y2="573.3"/>
	</g>
	<g id="F6">
		<polygon id="f6hallB" class="st0" points="1238.5,824.9 1274,824.9 1274,841.5 1220.7,841.5 1220.7,697.1 1238.5,661 		"/>
		<polygon id="H606" class="st0" points="1289.9,712.4 1239.9,712.4 1239.9,764 1284.1,764 		"/>
		<polygon id="H605" class="st0" points="1284.6,662.7 1239.7,661 1239.7,712.4 1289.9,712.4 1291.7,696.5 		"/>
		<polygon id="H604" class="st0" points="1289.9,610.1 1239.7,610.1 1239.7,661 1284.6,662.7 		"/>
		<polygon id="H603" class="st0" points="1284.1,560.9 1239.7,560.9 1239.7,605.3 1289.9,605.3 1291.7,592.3 		"/>
		<polygon id="f6hallA" class="st0" points="1220.7,533.1 1259.7,533.1 1259.7,559.5 1239.7,560.9 1239.7,661 1220.7,697.1 		"/>
		<polyline class="st0" points="1274,824.9 1274,789.4 1289.9,789.4 1284.1,764 		"/>
		<polygon class="st0" points="1220.7,797.1 992.8,797.1 992.8,695.3 1220.7,697.1 		"/>
		<polygon id="H601" class="st0" points="1247.3,533.1 1247.3,507.7 1256.2,507.7 1256.2,502.3 1291.7,502.3 1286.4,539 1259.7,539
			1259.7,533.1 		"/>
		<line class="st0" x1="1284.1" y1="560.9" x2="1286.4" y2="539"/>
		<polygon class="st0" points="1220.7,533.1 1220.7,479.2 1249.7,479.2 1247.3,533.1 		"/>
		<g id="Layer_21">
			<text transform="matrix(1 0 0 1 1259.7178 523.2969)" class="st1 st17">H601</text>
			<text transform="matrix(1 0 0 1 1249.7793 586.0068)" class="st1 st17">H603</text>
			<text transform="matrix(1 0 0 1 1249.5312 638.0312)" class="st1 st17">H604</text>
			<text transform="matrix(1 0 0 1 1249.5938 691.4248)" class="st1 st17">H605</text>
			<text transform="matrix(1 0 0 1 1253.6445 738.335)" class="st1 st17">H606</text>
		</g>
	</g>
	<text transform="matrix(8.165929e-03 1 -1 8.165929e-03 1290.0177 142.3614)" class="st1 st18">Marketing/Operations</text>
</g>
<g id="PC">
	<g id="PC_x5F_f1">
		<g id="Random_x5F_line">
			<path class="st0" d="M255.8,1059.3"/>
			<path class="st0" d="M528.1,1111.9c-2-50.3-49.5-52.4-49.5-52.4H256"/>
			<polyline class="st0" points="157.4,1059.5 121,1190.9 114.4,1190.9 39.5,1451.9 135.3,1451.9 140.2,1440.1 			"/>
		</g>
		<g>
			<polyline id="PC_entrance" class="st0" points="471.6,1383.6 498.2,1383.6 498.2,1356.6 450.8,1356.6 450.8,1383.6 471.6,1383.6
							"/>
		</g>
		<g>
			<polygon id="PC_commons" class="st0" points="130.8,1168.8 130.8,1207.2 174.6,1207.2 174.2,1298.9 161.1,1298.9 161.1,1328.8
				150.4,1328.8 150.4,1377 144.3,1377 130.8,1377 130.8,1388.5 121,1388.5 121,1411.9 148,1411.9 153.3,1392.6 221.6,1393
				221.6,1405.7 249.4,1405.3 249.4,1392.6 257.2,1392.6 257.2,1384 268.2,1384 268.2,1388.9 281.4,1388.9 281.4,1382.8
				281.4,1355.8 271.1,1355.8 271.1,1311.6 271.5,1254.3 270.8,1168.8 			"/>
		</g>
		<g>
			<polygon id="P106" class="st0" points="295.7,1354.2 502.3,1354.2 501.1,1167.1 295.7,1167.1 			"/>
		</g>
		<g>
			<rect id="stairs" x="270.8" y="1095.5" class="st0" width="24.1" height="57.3"/>
		</g>
		<g>
			<polygon id="P103" class="st0" points="249.4,1437.6 471.6,1437.2 471.6,1383.6 249.4,1383.6 			"/>
		</g>
		<g>
			<rect id="P107" x="274" y="1317.3" class="st0" width="18.4" height="34.8"/>
		</g>
		<g>
			<rect id="P108" x="274" y="1236.7" class="st0" width="18.4" height="72.4"/>
		</g>
		<g>
			<rect id="P111" x="274" y="1179.8" class="st0" width="18.4" height="49.9"/>
		</g>
		<g>
			<rect id="P113b" x="399.2" y="1095.5" class="st0" width="38.9" height="57.7"/>
		</g>
		<g>
			<rect id="P113a" x="358.7" y="1095.5" class="st0" width="38.5" height="57.7"/>
		</g>
		<g>
			<rect id="P116" x="438.9" y="1109.5" class="st0" width="24.1" height="43.8"/>
		</g>
		<g>
			<rect id="P117" x="462.6" y="1109.5" class="st0" width="31.5" height="43.8"/>
		</g>
		<g>
			<polygon id="P121" class="st0" points="294.9,1152.8 359.9,1152.8 359.1,1095.5 294.9,1095.5 			"/>
		</g>
		<g>
			<rect id="P128" x="154.5" y="1059.5" class="st0" width="98.2" height="94.9"/>
		</g>
		<g>
			<polygon id="P132" class="st0" points="112,1207.2 112.7,1266.6 174.6,1266.6 174.6,1207.2 			"/>
		</g>
		<g>
			<polygon id="P133" class="st0" points="95.6,1266.6 95.6,1328.8 161.1,1328.8 161.1,1298.9 174.6,1298.9 174.6,1266.6 			"/>
		</g>
		<g>
			<polygon id="P134" class="st0" points="78.4,1326.7 78.4,1387.7 130.4,1387.7 130.4,1376.3 144.7,1376.3 144.7,1362.8
				150.4,1363.1 150.4,1328.4 			"/>
		</g>
		<g>
			<polygon id="P135" class="st0" points="60.4,1387.3 60.4,1447.5 121.4,1447.5 121.4,1388.5 			"/>
		</g>
		<g>
			<polygon id="P137" class="st0" points="154.1,1393.4 140.2,1440.1 185.2,1440.1 185.2,1393.4 			"/>
		</g>
		<g>
			<rect id="P138" x="185.2" y="1393.4" class="st0" width="36.8" height="46.6"/>
		</g>
		<g id="text_3_">
			<text transform="matrix(1 0 0 1 130.6807 1252.7891)" class="st1 st19">P132</text>
			<text transform="matrix(1 0 0 1 121.6797 1309.2559)" class="st1 st19">P133</text>
			<text transform="matrix(1 0 0 1 100.8926 1359.4824)" class="st1 st19">P134</text>
			<text transform="matrix(1 0 0 1 82.4414 1437.4189)" class="st1 st19">P135</text>
			<text transform="matrix(1 0 0 1 151.7588 1433.6914)" class="st1 st19">P137</text>
			<text transform="matrix(1 0 0 1 191.8838 1433.4932)" class="st1 st19">P138</text>
			<text transform="matrix(1 0 0 1 379.6006 1403.4961)" class="st1 st19">P103</text>
			<text transform="matrix(1 0 0 1 369.5078 1242.0928)" class="st1 st19">PC Ford Gym</text>
			<text transform="matrix(1 0 0 1 369.5078 1257.3135)" class="st1 st19">P106</text>
			<text transform="matrix(-2.861627e-04 -1 1 -2.861627e-04 288.8927 1215.8848)" class="st1 st19">P111</text>
			<text transform="matrix(-4.727571e-03 -1 1 -4.727571e-03 288.2303 1286.1719)" class="st1 st20">P108</text>
			<text transform="matrix(-4.727571e-03 -1 1 -4.727571e-03 286.5936 1348.776)" class="st1 st20">P107</text>
			<text transform="matrix(1 0 0 1 197.2529 1286.1689)" class="st1 st19">PC</text>
			<text transform="matrix(1 0 0 1 197.2529 1301.3906)" class="st1 st19">Commons</text>
			<text transform="matrix(1 0 0 1 440.501 1133.9961)" class="st1 st21">P116</text>
			<text transform="matrix(1 0 0 1 467.3369 1131.7285)" class="st1 st21">P117</text>
			<text transform="matrix(1 0 0 1 369.4658 1124.8936)" class="st1 st21">P113</text>
			<text transform="matrix(1 0 0 1 410.3828 1124.0752)" class="st1 st21">P113</text>
			<text transform="matrix(1 0 0 1 301.9512 1110.1631)" class="st1 st21">P121</text>
			<text transform="matrix(1 0 0 1 184.8887 1128.3857)" class="st1 st21">P128</text>
			<text transform="matrix(1 0 0 1 513.8467 1370.1924)" class="st1 st21">Entrance</text>
			<text transform="matrix(1 0 0 1 513.8467 1381.9766)" class="st1 st21">To Intermediate</text>
		</g>
	</g>
	<g id="PC_x5F_f2">
		<polygon id="P235" class="st0" points="715.8,1452.7 715.8,1396.9 780.4,1396.9 803.4,1404.8 787.7,1452.7 		"/>
		<polygon id="P234" class="st0" points="732.7,1340.4 732.7,1396.9 780.7,1396.7 780.7,1343.5 		"/>
		<polygon id="P233" class="st0" points="748.9,1283.1 748.9,1341.4 799.5,1341.4 799.5,1285.7 		"/>
		<polygon id="P232" class="st0" points="765.1,1227.3 765.1,1283.9 816.1,1284.1 816.1,1227.3 		"/>
		<rect id="P230" x="780.7" y="1169.4" class="st0" width="50.6" height="57.9"/>
		<polygon id="P201" class="st0" points="818.2,1448.8 833.3,1391 903.7,1391 903.7,1448.8 		"/>
		<rect id="P202A" x="903.7" y="1391" class="st0" width="19.3" height="57.9"/>
		<rect id="P202" x="923" y="1391" class="st0" width="66.7" height="57.9"/>
		<rect id="P203" x="989.7" y="1391" class="st0" width="67.2" height="57.9"/>
		<rect id="P204" x="1056.9" y="1391" class="st0" width="75.1" height="57.9"/>
		<polygon id="PChallA" class="st0" points="1156,1391 868.2,1391 888.6,1376.9 903.7,1376.9 903.7,1352.9 925.1,1332.1
			925.1,1363.9 1156,1363.9 		"/>
		<polygon id="PCstairs" class="st0" points="1158.1,1448.8 1132,1448.8 1132,1391 1156,1391 		"/>
		<polygon id="PCoverhead" class="st0" points="925.1,1332.1 925.1,1169.4 951.7,1169.4 951.7,1147 925.1,1147 925.1,1128.3
			907.9,1128.3 907.9,1155.9 831.3,1169.4 831.3,1227.3 816.1,1227.3 816.1,1284.1 799.5,1285.7 799.5,1341.4 780.7,1343.5
			780.7,1396.7 803.6,1404.5 795.3,1429.5 825.3,1421.9 833.3,1391 868.3,1391 888.6,1376.9 903.7,1376.9 903.7,1352.9 		"/>
		<polygon id="pccafe2" class="st0" points="797.3,1169.4 797.4,1115.8 814.1,1115.8 814.1,1057.4 908.4,1057.4 908.4,1128.3
			908.4,1155.9 831.3,1169.4 		"/>
		<polygon id="pclounge2" class="st0" points="908.4,1048 1001.7,1048 1001.7,1092.3 926.6,1092.3 925.1,1128.3 908.4,1128.3
			"/>
		<polygon id="H227" class="st0" points="1126.3,1048 1126.3,1094.4 1001.7,1092.3 1001.7,1048 		"/>
		<polygon id="P207" class="st0" points="951.7,1312.3 951.7,1363.9 925.1,1363.9 925.1,1319.8 942.8,1319.5 942.8,1312.3 		"/>
		<polygon id="H208" class="st0" points="951.7,1257 951.7,1305.5 943.3,1305.5 943.3,1298.2 925.1,1298.1 925.1,1257.2 		"/>
		<rect id="P209" x="925.1" y="1216.3" class="st0" width="26.6" height="40.7"/>
		<rect id="P211" x="925.1" y="1169.4" class="st0" width="26.6" height="46.9"/>
		<rect id="PCac" x="951.7" y="1169.4" class="st0" width="217.3" height="194.4"/>
		<polygon class="st0" points="1126.3,1094.4 1156,1094.4 1156,1169.4 951.7,1169.4 948.7,1092.3 		"/>
		<g id="Layer_3">
			<text transform="matrix(1 0 0 1 795.8652 1201.1953)" class="st1 st22">P230</text>
			<text transform="matrix(1 0 0 1 777.3584 1258.8779)" class="st1 st22">P232</text>
			<text transform="matrix(1 0 0 1 763.3164 1309.623)" class="st1 st22">P233</text>
			<text transform="matrix(1 0 0 1 746.4307 1371.6436)" class="st1 st22">P234</text>
			<text transform="matrix(1 0 0 1 738.3652 1435.2852)" class="st1 st22">P235</text>
			<text transform="matrix(1 0 0 1 750.8174 1419.7412)" class="st1 st22">Tech Hub</text>
			<text transform="matrix(1 0 0 1 841.6963 1416.6592)" class="st1 st22">Luther Hall</text>
			<text transform="matrix(1 0 0 1 841.6963 1429.168)" class="st1 st22">P201</text>
			<text transform="matrix(1 0 0 1 942.1611 1419.957)" class="st1 st22">P202</text>
			<text transform="matrix(1 0 0 1 1010.6934 1420.1377)" class="st1 st22">P203</text>
			<text transform="matrix(1 0 0 1 1083.9805 1419.9668)" class="st1 st22">P204</text>
			<text transform="matrix(1 0 0 1 1043.9102 1262.0713)" class="st1 st22">Gym</text>
			<text transform="matrix(1 0 0 1 1043.9102 1274.5791)" class="st1 st22">Below</text>
			<text transform="matrix(1 0 0 1 928.0664 1186.5752)" class="st1 st22">P211</text>
			<text transform="matrix(1 0 0 1 927.1299 1203.8115)" class="st1 st22">P210</text>
			<text transform="matrix(1 0 0 1 927.0449 1242.8584)" class="st1 st22">P209</text>
			<text transform="matrix(1 0 0 1 927.5381 1281.4834)" class="st1 st22">P208</text>
			<text transform="matrix(1 0 0 1 927.917 1344.1055)" class="st1 st22">P207</text>
			<text transform="matrix(1 0 0 1 1005.8662 1123.6973)" class="st1 st22">Rooftop Mechanical</text>
			<text transform="matrix(1 0 0 1 1005.8662 1136.2061)" class="st1 st22">AC Plant</text>
			<text transform="matrix(1 0 0 1 1005.8662 1148.7148)" class="st1 st22">Bolier RM</text>
			<text transform="matrix(1 0 0 1 812.3213 1130.7852)" class="st1 st22">Phoenix Center Cafe</text>
			<text transform="matrix(1 0 0 1 812.3213 1143.2949)" class="st1 st22">P228</text>
			<text transform="matrix(1 0 0 1 931.3584 1071.3203)" class="st1 st22">PC Lounge</text>
			<text transform="matrix(1 0 0 1 849.1572 1281.1543)" class="st1 st22">PC Cafeteria</text>
			<text transform="matrix(1 0 0 1 849.1572 1293.6631)" class="st1 st22">Above</text>
		</g>
	</g>
	<g id="Layer_4_1_">
		<text transform="matrix(1 0 0 1 118.8662 1511.8008)" class="st1 st23">PC First Floor</text>
		<text transform="matrix(1 0 0 1 799.499 1511.708)" class="st1 st23">PC Second Floor</text>
	</g>
</g>
<g id="Layer_1">
	<g id="Layer_1_1_">
	</g>
	<g id="Layer_6_1_">
	</g>
	<g id="RC_x5F_f1">
		<g>
			<polygon id="R101" class="st0" points="1813,9 1767.5,167.9 2015.2,242.2 2063.1,80.5 			"/>
		</g>
		<g>
			<polygon id="R102" class="st0" points="2053.3,198.3 2048.2,330.2 2179.5,340 2188.3,207.1 			"/>
		</g>
		<g>
			<polygon id="R110" class="st0" points="1821.1,207.7 1794.4,298.6 1862.3,318.4 1889,227 			"/>
		</g>
		<g>
			<polygon id="R103" class="st0" points="1968.6,246.9 1940.2,340 1981,354.2 2006.7,256.7 			"/>
		</g>
		<g>
			<polygon id="lobby_hallway" class="st0" points="2063.1,80.5 2135.3,102.5 2135.3,203.6 2053.3,198.3 2048.2,330.2 2053.3,330.6
				2053.3,352.2 1981,354.2 2006.7,256.7 1821.1,207.7 1813.8,232.8 1769.9,219.9 1775.9,198.3 1757,191.9 1767.5,167.9
				2015.2,242.2 			"/>
		</g>
		<g id="labels">
			<text transform="matrix(1 0 0 1 1903.6729 139.521)" class="st1 st24">R101</text>
			<text transform="matrix(1 0 0 1 1963.0088 297.1162)" class="st1 st24">R103</text>
			<text transform="matrix(1 0 0 1 1833.4727 263.1904)" class="st1 st24">R110</text>
			<text transform="matrix(1 0 0 1 2105.8887 265.7871)" class="st1 st24">R102</text>
			<text transform="matrix(1 0 0 1 1934.8662 277.7568)" class="st1 st24">R104</text>
			<text transform="matrix(1 0 0 1 1922.1855 318.4771)" class="st1 st24">R105</text>
			<text transform="matrix(1 0 0 1 1913.5156 254.5093)" class="st1 st24">R106</text>
			<text transform="matrix(1 0 0 1 1901.3115 292.1572)" class="st1 st24">R107</text>
			<text transform="matrix(1 0 0 1 1885.3086 259.2041)" class="st1 st24">R108</text>
			<text transform="matrix(1 0 0 1 1872.4297 307.6963)" class="st1 st24">R109</text>
			<text transform="matrix(1 0 0 1 2077.0781 149.4893)" class="st1 st24">Lobby</text>
		</g>
		<g>
			<polygon id="R104" class="st0" points="1937.8,239.1 1920.3,299.5 1951.2,307.6 1968.6,247.3 			"/>
		</g>
		<g>
			<polygon id="R105" class="st0" points="1939,338 1949.4,307.6 1920.2,300.2 1907.8,332 			"/>
		</g>
		<g>
			<polygon id="R107" class="st0" points="1905.5,261.4 1887.9,324.2 1909.5,331 1927.8,268.2 			"/>
		</g>
		<g>
			<polygon id="R106" class="st25" points="1934.8,240.1 1913.6,234.1 1905.5,261.4 1927.8,268.2 			"/>
			<polygon class="st0" points="1937.9,239.1 1913.6,234.1 1905.5,261.4 1927.8,268.2 			"/>
		</g>
		<g>
			<polygon id="R108" class="st0" points="1887.9,226.3 1913.6,234.1 1896.8,292.3 1872.4,284.4 			"/>
		</g>
		<g>
			<polygon id="R109" class="st0" points="1862.9,317.4 1872.4,284.4 1896.7,292.5 1887.9,324.2 			"/>
		</g>
	</g>
	<g id="RC_x5F_f2">
		<g>
			<path class="st0" d="M2493.5,365.7"/>
			<polygon id="f2_hallway" class="st0" points="2532.4,85.9 2484.8,253.3 2251.4,186.7 2245,209.8 2478.4,274 2457.6,355.2
				2493.5,365.7 2516.1,291.3 2518.8,206.4 2529,206.8 2562.6,94.6 			"/>
		</g>
		<g>
			<polygon id="R220" class="st0" points="2290.7,15.7 2245,183.4 2484.8,253.3 2532.4,85.9 			"/>
		</g>
		<g>
			<polygon id="R221" class="st0" points="2400.5,357.1 2427.8,260.1 2478.4,274 2451.5,371.4 			"/>
		</g>
		<g>
			<polygon id="practice_rooms" class="st0" points="2349.6,238.6 2323.1,335.5 2400.5,357.1 2427.8,260 			"/>
		</g>
		<g>
			<polygon id="R228" class="st0" points="2277.6,218.8 2251,315.9 2323.1,335.5 2349.6,238.5 			"/>
		</g>
		<g>
			<polygon id="R229" class="st0" points="2251.4,186.7 2221.2,176.9 2215.1,202.2 2245,209.8 			"/>
		</g>
		<g id="labels_4_">
			<text transform="matrix(1 0 0 1 2379.3037 128.2915)" class="st1 st26">R220</text>
			<text transform="matrix(1 0 0 1 2365.7891 139.1562)" class="st1 st26">(Mezzanine)</text>
			<text transform="matrix(1 0 0 1 2430.1348 315.8823)" class="st1 st26">R221</text>
			<text transform="matrix(1 0 0 1 2346.6475 297.6616)" class="st1 st26">Practice Rooms</text>
			<text transform="matrix(1 0 0 1 2290.9854 277.3325)" class="st1 st26">R228</text>
			<text transform="matrix(1 0 0 1 2223.6758 196.0278)" class="st1 st26">R229</text>
			<text transform="matrix(0.9691 0.2467 -0.2467 0.9691 2351.7676 231.1886)" class="st1 st27">Hallways</text>
		</g>
	</g>
	<g id="RC_x5F_f3">
		<g>
			<polyline id="f3_hallway" class="st0" points="2073.5,535.8 2069.3,612.2 2064.7,610.1 2042.9,688.1 2006.4,678.2 2026.7,598.9
				1997.6,590.8 1979,659.9 1955.4,653.6 1974.7,585.5 1794.9,537.3 1802.6,510.3 2033.1,578.5 2046.4,533.8 2073.5,535.8 			"/>
		</g>
		<g>
			<polygon id="R302" class="st0" points="2080.5,412.2 2046.4,533.8 2155,541.6 2155,434.4 			"/>
		</g>
		<g>
			<polygon id="R301" class="st0" points="2080.5,412.2 2048.5,402.4 2001,569.2 2033.1,578.5 			"/>
		</g>
		<g>
			<path class="st0" d="M1974.8,585.4"/>
			<polygon id="R303" class="st0" points="2026.7,599.2 2002.5,693 1970.6,683.9 1998.7,590.8 			"/>
		</g>
		<g>
			<polygon id="R305" class="st0" points="1955.4,653.6 1947.7,677.2 1970.6,683.9 1979,659.9 			"/>
		</g>
		<g>
			<polygon id="R306" class="st0" points="1904.7,566.7 1878.8,657.2 1947.7,677.2 1974.7,585.5 			"/>
		</g>
		<g>
			<polygon id="R307" class="st0" points="1827.3,546.6 1905.5,567.1 1878,657.2 1799.1,637.4 			"/>
			<path class="st0" d="M1799.1,514.5"/>
		</g>
		<g>
			<polygon id="R308" class="st0" points="1802.6,510.3 1774.1,502.2 1767.5,526.8 1794.9,537.3 			"/>
		</g>
		<g id="labels_2_">
			<text transform="matrix(1 0 0 1 2101.1194 481.4893)" class="st1 st28">R302</text>
			<text transform="matrix(1 0 0 1 2081.4446 491.6255)" class="st1 st28">Orchestra Room</text>
			<text transform="matrix(0.2924 -0.9563 0.9563 0.2924 2033.3536 500.9208)" class="st1 st29">R301</text>
			<text transform="matrix(0.2924 -0.9563 0.9563 0.2924 2038.3793 519.1519)" class="st1 st29">Control Booth</text>
			<text transform="matrix(1 0 0 1 1917.9641 617.7754)" class="st1 st28">R306</text>
			<text transform="matrix(1 0 0 1 1905.179 627.9111)" class="st1 st28">Music Room</text>
			<text transform="matrix(1 0 0 1 1843.4797 599.0317)" class="st1 st28">R307</text>
			<text transform="matrix(1 0 0 1 1820.9553 609.1675)" class="st1 st28">Mechanical Room</text>
			<text transform="matrix(1 0 0 1 1992.2903 650.082)" class="st1 st28">R303</text>
			<text transform="matrix(1 0 0 1 1954.6614 670.6006)" class="st1 st28">R305</text>
			<text transform="matrix(1 0 0 1 1774.7395 519.7686)" class="st1 st28">R308</text>
			<text transform="matrix(0.9837 0.18 -0.18 0.9837 1897.8131 554.8617)" class="st1 st30">Hallways</text>
		</g>
	</g>
	<g id="RC_x5F_f4">
		<g>
			<polygon id="R401" class="st0" points="2496.7,452.3 2462,570.8 2499.2,570.8 2551.8,570.8 2551.8,584.8 2580.8,584.8
				2580.8,476.5 			"/>
		</g>
		<g>
			<rect id="R402" x="2499.2" y="570.8" class="st0" width="51.9" height="27"/>
		</g>
		<g>
			<polygon id="R403" class="st0" points="2580.8,584.8 2580.8,733.1 2490.4,733.1 2499.2,597.8 2551,597.8 2551.8,584.8 			"/>
		</g>
		<g>
			<polygon id="R407" class="st0" points="2333.7,576.4 2298,698.7 2373.3,720.8 2408.4,597.8 			"/>
		</g>
		<g>
			<polygon id="R404" class="st0" points="2416.4,656.6 2440.3,663 2431.5,696.6 2406.3,688.9 			"/>
		</g>
		<g>
			<polygon id="R405" class="st0" points="2395.7,725.4 2406.3,688.9 2431.5,696.6 2421,733.1 			"/>
		</g>
		<g>
			<polygon id="R406" class="st0" points="2375.1,720.8 2396.1,725.7 2402.8,702.2 2381.6,696.6 			"/>
		</g>
		<g>
			<polygon id="roof_garden" class="st0" points="2496.7,452.3 2247.8,384.6 2201.9,540.3 2449.4,609.7 			"/>
		</g>
		<g>
			<polygon id="f4_hallway" class="st0" points="2499.2,570.8 2462,570.8 2449.4,609.7 2408.4,597.8 2380.3,696.6 2401.4,701.9
				2416.4,656.6 2440.3,663 2425.2,718 2466.9,729.6 2473.6,706.1 2492.1,707.1 2499.2,597.8 			"/>
		</g>
		<g id="labels_3_">
			<text transform="matrix(1 0 0 1 2528.2139 529.3218)" class="st1 st31">R401</text>
			<text transform="matrix(1 0 0 1 2530.9932 668.2031)" class="st1 st31">R403</text>
			<text transform="matrix(1 0 0 1 2413.7129 679.2554)" class="st1 st31">R404</text>
			<text transform="matrix(1 0 0 1 2406.127 710.9497)" class="st1 st31">R405</text>
			<text transform="matrix(1 0 0 1 2380.2598 712.6001)" class="st1 st31">R406</text>
			<text transform="matrix(1 0 0 1 2335.9316 649.9277)" class="st1 st31">R407</text>
			<text transform="matrix(1 0 0 1 2322.623 500.2637)" class="st1 st31">Rooftop Garden</text>
			<text transform="matrix(1 0 0 1 2440.373 636.8555)" class="st1 st31">Hallway</text>
			<text transform="matrix(1 0 0 1 2517.1582 586.3486)" class="st1 st31">R402</text>
		</g>
	</g>
</g>
<g id="Labels">
	<text transform="matrix(1 0 0 1 98.3403 435.5957)" class="st1 st32">HS Basement</text>
	<text transform="matrix(1 0 0 1 549.2305 479.105)" class="st1 st32">HS F1</text>
	<text transform="matrix(1 0 0 1 934.2251 474.7891)" class="st1 st32">HS F2</text>
	<text transform="matrix(1 0 0 1 1210.7837 411.2617)" class="st1 st32">HS F3</text>
	<text transform="matrix(1 0 0 1 992.9824 852.2227)" class="st1 st32">HS F6</text>
	<text transform="matrix(1 0 0 1 536.2485 863.6089)" class="st1 st32">HS F5</text>
	<text transform="matrix(1 0 0 1 151.604 874.7314)" class="st1 st32">HS F4</text>
	<text transform="matrix(1 0 0 1 1413.8574 1595.4082)"><tspan x="0" y="0" class="st1 st32">Intermediate Building</tspan><tspan x="0" y="36" class="st1 st32">Floor 1</tspan></text>
	<text transform="matrix(1 0 0 1 1906.1387 1586.1045)"><tspan x="0" y="0" class="st1 st32">Intermediate Building</tspan><tspan x="0" y="36" class="st1 st32">Floor 2</tspan></text>
	<text transform="matrix(1 0 0 1 2386.4746 1009.3525)" class="st1 st32">ES F1</text>
	<text transform="matrix(1 0 0 1 2386.5596 1252.5342)" class="st1 st32">ES F2</text>
	<text transform="matrix(1 0 0 1 2386.0215 1534.0977)" class="st1 st32">ES F3</text>
	<text transform="matrix(1 0 0 1 2365.8857 1775.0938)" class="st1 st32">ES F4</text>
	<text transform="matrix(1 0 0 1 1679.9297 261.4849)"><tspan x="0" y="0" class="st1 st32">Rittman</tspan><tspan x="0" y="36" class="st1 st32">F1</tspan></text>
	<text transform="matrix(1 0 0 1 1680.1748 598.7017)"><tspan x="0" y="0" class="st1 st32">Rittman</tspan><tspan x="0" y="36" class="st1 st32">F3</tspan></text>
	<text transform="matrix(1 0 0 1 2158.3389 732.6079)" class="st1 st32">Rittman F4</text>
	<text transform="matrix(1 0 0 1 2574.6729 234.6606)"><tspan x="0" y="0" class="st1 st32">Rittman</tspan><tspan x="0" y="36" class="st1 st32">F2</tspan></text>
</g>
</svg>
